<svg width="1920" height="1080" viewBox="0 0 1920 1080" fill="none" xmlns="http://www.w3.org/2000/svg">
<g clip-path="url(#clip0_7145_467)">
<path d="M230.752 589.77C230.752 589.77 187.492 556.65 188.052 577.62C188.612 598.59 230.752 589.77 230.752 589.77Z" fill="#FFE1E1"/>
<path d="M278.262 577.75C277.702 598.72 235.562 589.9 235.562 589.9C235.562 589.9 278.822 556.78 278.262 577.75Z" fill="#FFE1E1"/>
<path d="M210.225 633.43C194.635 619.39 228.705 593.06 228.705 593.06C228.705 593.06 225.805 647.46 210.225 633.43Z" fill="#FFE1E1"/>
<path d="M255.386 633.15C270.976 619.11 236.906 592.78 236.906 592.78C236.906 592.78 239.806 647.18 255.386 633.15Z" fill="#FFE1E1"/>
<path d="M560.68 509.14C560.68 509.14 444.94 420.51 446.42 476.62C447.9 532.73 560.68 509.14 560.68 509.14Z" fill="#FFE1E1"/>
<path d="M36.2741 697.134C36.2741 697.134 -79.4659 608.504 -77.9859 664.614C-76.5059 720.724 36.2741 697.134 36.2741 697.134Z" fill="#FFE1E1"/>
<path d="M687.799 476.98C686.309 533.08 573.539 509.5 573.539 509.5C573.539 509.5 689.279 420.87 687.799 476.98Z" fill="#FFE1E1"/>
<path d="M163.393 664.974C161.903 721.074 49.1328 697.494 49.1328 697.494C49.1328 697.494 164.873 608.864 163.393 664.974Z" fill="#FFE1E1"/>
<path d="M505.749 625.949C464.049 588.389 555.209 517.939 555.209 517.939C555.209 517.939 547.459 663.509 505.749 625.949Z" fill="#FFE1E1"/>
<path d="M-18.6573 813.944C-60.3573 776.384 30.8027 705.934 30.8027 705.934C30.8027 705.934 23.0527 851.504 -18.6573 813.944Z" fill="#FFE1E1"/>
<path d="M626.601 625.21C668.301 587.65 577.141 517.2 577.141 517.2C577.141 517.2 584.891 662.77 626.601 625.21Z" fill="#FFE1E1"/>
<path d="M102.194 813.204C143.894 775.644 52.7344 705.194 52.7344 705.194C52.7344 705.194 60.4844 850.764 102.194 813.204Z" fill="#FFE1E1"/>
<path d="M569.494 838.83C569.494 838.83 526.234 805.71 526.794 826.68C527.354 847.65 569.494 838.83 569.494 838.83Z" fill="#FFE1E1"/>
<path d="M616.989 826.81C616.429 847.78 574.289 838.96 574.289 838.96C574.289 838.96 617.549 805.84 616.989 826.81Z" fill="#FFE1E1"/>
<path d="M548.959 882.49C533.369 868.45 567.439 842.12 567.439 842.12C567.439 842.12 564.539 896.52 548.959 882.49Z" fill="#FFE1E1"/>
<path d="M594.121 882.21C609.711 868.17 575.641 841.84 575.641 841.84C575.641 841.84 578.541 896.24 594.121 882.21Z" fill="#FFE1E1"/>
<path d="M920.729 577.96C920.729 577.96 877.469 544.84 878.029 565.81C878.589 586.78 920.729 577.96 920.729 577.96Z" fill="#FFE1E1"/>
<path d="M838.705 805.107C838.705 805.107 795.445 771.987 796.005 792.957C796.565 813.927 838.705 805.107 838.705 805.107Z" fill="#FFE1E1"/>
<path d="M712.705 974.107C712.705 974.107 669.445 940.987 670.005 961.957C670.565 982.927 712.705 974.107 712.705 974.107Z" fill="#FFE1E1"/>
<path d="M968.239 565.94C967.679 586.91 925.539 578.09 925.539 578.09C925.539 578.09 968.799 544.97 968.239 565.94Z" fill="#FFE1E1"/>
<path d="M886.216 793.087C885.656 814.057 843.516 805.237 843.516 805.237C843.516 805.237 886.776 772.117 886.216 793.087Z" fill="#FFE1E1"/>
<path d="M760.216 962.087C759.656 983.057 717.516 974.237 717.516 974.237C717.516 974.237 760.776 941.117 760.216 962.087Z" fill="#FFE1E1"/>
<path d="M900.201 621.62C884.611 607.58 918.681 581.25 918.681 581.25C918.681 581.25 915.781 635.65 900.201 621.62Z" fill="#FFE1E1"/>
<path d="M818.178 848.767C802.588 834.727 836.658 808.397 836.658 808.397C836.658 808.397 833.758 862.797 818.178 848.767Z" fill="#FFE1E1"/>
<path d="M692.178 1017.77C676.588 1003.73 710.658 977.397 710.658 977.397C710.658 977.397 707.758 1031.8 692.178 1017.77Z" fill="#FFE1E1"/>
<path d="M945.363 621.34C960.953 607.3 926.883 580.97 926.883 580.97C926.883 580.97 929.783 635.37 945.363 621.34Z" fill="#FFE1E1"/>
<path d="M863.339 848.487C878.929 834.447 844.859 808.117 844.859 808.117C844.859 808.117 847.759 862.517 863.339 848.487Z" fill="#FFE1E1"/>
<path d="M737.339 1017.49C752.929 1003.45 718.859 977.117 718.859 977.117C718.859 977.117 721.759 1031.52 737.339 1017.49Z" fill="#FFE1E1"/>
<path d="M230.073 43.5301C230.073 43.5301 186.813 10.4101 187.373 31.3801C187.933 52.3501 230.073 43.5301 230.073 43.5301Z" fill="#FFE1E1"/>
<path d="M277.583 31.5198C277.023 52.4898 234.883 43.6698 234.883 43.6698C234.883 43.6698 278.143 10.5498 277.583 31.5198Z" fill="#FFE1E1"/>
<path d="M209.545 87.1903C193.955 73.1503 228.025 46.8203 228.025 46.8203C228.025 46.8203 225.125 101.22 209.545 87.1903Z" fill="#FFE1E1"/>
<path d="M254.714 86.91C270.304 72.87 236.234 46.54 236.234 46.54C236.234 46.54 239.134 100.94 254.714 86.91Z" fill="#FFE1E1"/>
<path d="M505.069 79.72C463.369 42.16 554.529 -28.29 554.529 -28.29C554.529 -28.29 546.779 117.28 505.069 79.72Z" fill="#FFE1E1"/>
<path d="M625.921 78.97C667.621 41.41 576.461 -29.04 576.461 -29.04C576.461 -29.04 584.211 116.53 625.921 78.97Z" fill="#FFE1E1"/>
<path d="M573.705 283.59C573.705 283.59 530.445 250.47 531.005 271.44C531.565 292.41 573.705 283.59 573.705 283.59Z" fill="#FFE1E1"/>
<path d="M339.705 327.107C339.705 327.107 296.445 293.987 297.005 314.957C297.565 335.927 339.705 327.107 339.705 327.107Z" fill="#FFE1E1"/>
<path d="M621.325 271.957C620.765 292.927 578.625 284.107 578.625 284.107C578.625 284.107 621.885 250.987 621.325 271.957Z" fill="#FFE1E1"/>
<path d="M387.325 315.475C386.765 336.445 344.625 327.625 344.625 327.625C344.625 327.625 387.885 294.505 387.325 315.475Z" fill="#FFE1E1"/>
<path d="M545.084 326.37C529.494 312.33 563.564 286 563.564 286C563.564 286 560.664 340.4 545.084 326.37Z" fill="#FFE1E1"/>
<path d="M311.084 369.888C295.494 355.848 329.564 329.518 329.564 329.518C329.564 329.518 326.664 383.918 311.084 369.888Z" fill="#FFE1E1"/>
<path d="M598.449 326.97C614.039 312.93 579.969 286.6 579.969 286.6C579.969 286.6 582.869 341 598.449 326.97Z" fill="#FFE1E1"/>
<path d="M364.449 370.487C380.039 356.447 345.969 330.117 345.969 330.117C345.969 330.117 348.869 384.517 364.449 370.487Z" fill="#FFE1E1"/>
<path d="M880.049 33.7196C880.049 33.7196 836.789 0.599565 837.349 21.5696C837.909 42.5396 880.049 33.7196 880.049 33.7196Z" fill="#FFE1E1"/>
<path d="M927.559 21.7102C926.999 42.6802 884.859 33.8602 884.859 33.8602C884.859 33.8602 928.119 0.74019 927.559 21.7102Z" fill="#FFE1E1"/>
<path d="M859.521 77.3798C843.931 63.3398 878.001 37.0098 878.001 37.0098C878.001 37.0098 875.101 91.4098 859.521 77.3798Z" fill="#FFE1E1"/>
<path d="M904.691 77.0995C920.281 63.0595 886.211 36.7295 886.211 36.7295C886.211 36.7295 889.111 91.1295 904.691 77.0995Z" fill="#FFE1E1"/>
<path d="M1248.45 492.17C1248.45 492.17 1132.71 403.54 1134.19 459.65C1135.67 515.76 1248.45 492.17 1248.45 492.17Z" fill="#FFE1E1"/>
<path d="M1375.57 460.01C1374.08 516.11 1261.31 492.53 1261.31 492.53C1261.31 492.53 1377.05 403.9 1375.57 460.01Z" fill="#FFE1E1"/>
<path d="M1193.52 608.98C1151.82 571.42 1242.98 500.97 1242.98 500.97C1242.98 500.97 1235.23 646.54 1193.52 608.98Z" fill="#FFE1E1"/>
<path d="M1314.37 608.24C1356.07 570.68 1264.91 500.229 1264.91 500.229C1264.91 500.229 1272.66 645.8 1314.37 608.24Z" fill="#FFE1E1"/>
<path d="M1355.26 267.86C1355.26 267.86 1312 234.74 1312.56 255.71C1313.12 276.68 1355.26 267.86 1355.26 267.86Z" fill="#FFE1E1"/>
<path d="M1402.77 255.84C1402.21 276.81 1360.07 267.99 1360.07 267.99C1360.07 267.99 1403.33 234.87 1402.77 255.84Z" fill="#FFE1E1"/>
<path d="M1334.73 311.52C1319.14 297.48 1353.21 271.15 1353.21 271.15C1353.21 271.15 1350.31 325.55 1334.73 311.52Z" fill="#FFE1E1"/>
<path d="M1379.89 311.24C1395.48 297.2 1361.41 270.87 1361.41 270.87C1361.41 270.87 1364.31 325.27 1379.89 311.24Z" fill="#FFE1E1"/>
<path d="M1702.2 187.23C1702.2 187.23 1586.46 98.6 1587.94 154.71C1589.43 210.81 1702.2 187.23 1702.2 187.23Z" fill="#FFE1E1"/>
<path d="M1829.31 155.07C1827.82 211.17 1715.05 187.59 1715.05 187.59C1715.05 187.59 1830.79 98.9603 1829.31 155.07Z" fill="#FFE1E1"/>
<path d="M1647.26 304.04C1605.56 266.48 1696.72 196.03 1696.72 196.03C1696.72 196.03 1688.97 341.6 1647.26 304.04Z" fill="#FFE1E1"/>
<path d="M1768.12 303.3C1809.82 265.74 1718.66 195.29 1718.66 195.29C1718.66 195.29 1726.41 340.86 1768.12 303.3Z" fill="#FFE1E1"/>
<path d="M1704 553.92C1704 553.92 1660.74 520.8 1661.3 541.77C1661.86 562.74 1704 553.92 1704 553.92Z" fill="#FFE1E1"/>
<path d="M1751.5 541.9C1750.94 562.87 1708.8 554.05 1708.8 554.05C1708.8 554.05 1752.06 520.93 1751.5 541.9Z" fill="#FFE1E1"/>
<path d="M1683.47 597.58C1667.88 583.54 1701.95 557.21 1701.95 557.21C1701.95 557.21 1699.05 611.61 1683.47 597.58Z" fill="#FFE1E1"/>
<path d="M1728.64 597.3C1744.23 583.26 1710.16 556.93 1710.16 556.93C1710.16 556.93 1713.06 611.33 1728.64 597.3Z" fill="#FFE1E1"/>
<path d="M1668.54 832.23C1668.54 832.23 1552.8 743.6 1554.28 799.71C1555.77 855.81 1668.54 832.23 1668.54 832.23Z" fill="#FFE1E1"/>
<path d="M1795.67 800.07C1794.18 856.17 1681.41 832.59 1681.41 832.59C1681.41 832.59 1797.15 743.96 1795.67 800.07Z" fill="#FFE1E1"/>
<path d="M1613.6 949.04C1571.9 911.48 1663.06 841.03 1663.06 841.03C1663.06 841.03 1655.31 986.6 1613.6 949.04Z" fill="#FFE1E1"/>
<path d="M1734.45 948.3C1776.15 910.74 1684.99 840.29 1684.99 840.29C1684.99 840.29 1692.74 985.86 1734.45 948.3Z" fill="#FFE1E1"/>
<path d="M875.705 251.107C875.705 251.107 832.445 217.987 833.005 238.957C833.565 259.927 875.705 251.107 875.705 251.107Z" fill="#FFE1E1"/>
<path d="M923.216 239.087C922.656 260.057 880.516 251.237 880.516 251.237C880.516 251.237 923.776 218.117 923.216 239.087Z" fill="#FFE1E1"/>
<path d="M855.178 294.767C839.588 280.727 873.658 254.397 873.658 254.397C873.658 254.397 870.758 308.797 855.178 294.767Z" fill="#FFE1E1"/>
<path d="M900.339 294.487C915.929 280.447 881.859 254.117 881.859 254.117C881.859 254.117 884.759 308.517 900.339 294.487Z" fill="#FFE1E1"/>
</g>
<defs>
<clipPath id="clip0_7145_467">
<rect width="1920" height="1080" fill="white"/>
</clipPath>
</defs>
</svg>
